<?xml version="1.0" encoding="UTF-8"?>
<svg xmlns="http://www.w3.org/2000/svg"
     xmlns:xlink="http://www.w3.org/1999/xlink"
     version="1.2"
     width="160mm" height="160mm" viewBox="0 0 160 160"
     stroke="none"
     fill="#000000"
     stroke-width="0.3"
     font-size="3.88"
>
<g stroke-width="0.3" fill="#000000" fill-opacity="0.000" id="img-5cf1b9fe-1">
  <g transform="translate(11.4,81.38)" stroke="#000000">
    <path fill="none" d="M24.72,-24.14 L -24.72 24.14" class="primitive"/>
  </g>
  <g transform="translate(2.78,68.68)" stroke="#000000">
    <path fill="none" d="M32.81,33.6 L -32.81 -33.6" class="primitive"/>
  </g>
  <g transform="translate(21.7,71.32)" stroke="#000000">
    <path fill="none" d="M24.92,-24.33 L -24.92 24.33" class="primitive"/>
  </g>
  <g transform="translate(27.53,87.4)" stroke="#000000">
    <path fill="none" d="M18.38,18.83 L -18.38 -18.83" class="primitive"/>
  </g>
  <g transform="translate(34.68,58.64)" stroke="#FFFFFF">
    <path fill="none" d="M14.44,-14.1 L -14.44 14.1" class="primitive"/>
  </g>
  <g transform="translate(35.69,83.14)" stroke="#000000">
    <path fill="none" d="M12.82,13.13 L -12.82 -13.13" class="primitive"/>
  </g>
  <g transform="translate(29.56,63.64)" stroke="#000000">
    <path fill="none" d="M13.47,-13.15 L -13.47 13.15" class="primitive"/>
  </g>
  <g transform="translate(27.27,57.14)" stroke="#000000">
    <path fill="none" d="M15.5,15.87 L -15.5 -15.87" class="primitive"/>
  </g>
  <g transform="translate(42.77,50.74)" stroke="#FFFFFF">
    <path fill="none" d="M24.81,-24.23 L -24.81 24.23" class="primitive"/>
  </g>
  <g transform="translate(52.93,63.01)" stroke="#000000">
    <path fill="none" d="M14.06,14.4 L -14.06 -14.4" class="primitive"/>
  </g>
  <g transform="translate(64.01,30.01)" stroke="#000000">
    <path fill="none" d="M23.18,-22.63 L -23.18 22.63" class="primitive"/>
  </g>
  <g transform="translate(57.47,46.19)" stroke="#000000">
    <path fill="none" d="M28.89,29.59 L -28.89 -29.59" class="primitive"/>
  </g>
  <g transform="translate(59.73,34.18)" stroke="#000000">
    <path fill="none" d="M24.99,-24.41 L -24.99 24.41" class="primitive"/>
  </g>
  <g transform="translate(72.21,40.87)" stroke="#000000">
    <path fill="none" d="M12,12.29 L -12 -12.29" class="primitive"/>
  </g>
  <g transform="translate(72.71,21.51)" stroke="#FFFFFF">
    <path fill="none" d="M35.47,-34.64 L -35.47 34.64" class="primitive"/>
  </g>
  <g transform="translate(84.6,36.19)" stroke="#000000">
    <path fill="none" d="M22.71,23.26 L -22.71 -23.26" class="primitive"/>
  </g>
  <g transform="translate(86.18,8.36)" stroke="#000000">
    <path fill="none" d="M32.11,-31.36 L -32.11 31.36" class="primitive"/>
  </g>
  <g transform="translate(90.91,30.03)" stroke="#000000">
    <path fill="none" d="M26.42,27.06 L -26.42 -27.06" class="primitive"/>
  </g>
  <g transform="translate(74.44,6.53)" stroke="#000000">
    <path fill="none" d="M33.02,33.81 L -33.02 -33.81" class="primitive"/>
  </g>
  <g transform="translate(36.56,63.23)" stroke="#000000">
    <path fill="none" d="M27.68,-27.03 L -27.68 27.03" class="primitive"/>
  </g>
  <g transform="translate(27.63,94.14)" stroke="#000000">
    <path fill="none" d="M35.48,36.34 L -35.48 -36.34" class="primitive"/>
  </g>
  <g transform="translate(26.81,72.75)" stroke="#000000">
    <path fill="none" d="M4.02,-3.93 L -4.02 3.93" class="primitive"/>
  </g>
  <g transform="translate(11.37,70.85)" stroke="#000000">
    <path fill="none" d="M19.2,19.67 L -19.2 -19.67" class="primitive"/>
  </g>
  <g transform="translate(20.38,79.04)" stroke="#FFFFFF">
    <path fill="none" d="M9.17,-8.95 L -9.17 8.95" class="primitive"/>
  </g>
  <g transform="translate(29.43,76.72)" stroke="#FFFFFF">
    <path fill="none" d="M0.04,0.04 L -0.04 -0.04" class="primitive"/>
  </g>
  <g transform="translate(48.6,51.47)" stroke="#000000">
    <path fill="none" d="M9.88,-9.65 L -9.88 9.65" class="primitive"/>
  </g>
  <g transform="translate(32.75,62.76)" stroke="#000000">
    <path fill="none" d="M25.18,25.79 L -25.18 -25.79" class="primitive"/>
  </g>
  <g transform="translate(39.65,60.21)" stroke="#FFFFFF">
    <path fill="none" d="M11.73,-11.45 L -11.73 11.45" class="primitive"/>
  </g>
  <g transform="translate(40.89,50.68)" stroke="#000000">
    <path fill="none" d="M10.34,10.59 L -10.34 -10.59" class="primitive"/>
  </g>
  <g transform="translate(71.86,28.76)" stroke="#000000">
    <path fill="none" d="M11.78,-11.51 L -11.78 11.51" class="primitive"/>
  </g>
  <g transform="translate(70.17,59.2)" stroke="#000000">
    <path fill="none" d="M12.82,13.13 L -12.82 -13.13" class="primitive"/>
  </g>
  <g transform="translate(66.74,33.76)" stroke="#000000">
    <path fill="none" d="M5.16,-5.04 L -5.16 5.04" class="primitive"/>
  </g>
  <g transform="translate(61.83,30.24)" stroke="#000000">
    <path fill="none" d="M9.93,10.17 L -9.93 -10.17" class="primitive"/>
  </g>
  <g transform="translate(75.92,24.79)" stroke="#FFFFFF">
    <path fill="none" d="M11.83,-11.55 L -11.83 11.55" class="primitive"/>
  </g>
  <g transform="translate(76.69,28.09)" stroke="#000000">
    <path fill="none" d="M10.75,11.01 L -10.75 -11.01" class="primitive"/>
  </g>
  <g transform="translate(69.13,31.43)" stroke="#000000">
    <path fill="none" d="M28.73,-28.06 L -28.73 28.06" class="primitive"/>
  </g>
  <g transform="translate(79.7,18.55)" stroke="#000000">
    <path fill="none" d="M17.76,18.19 L -17.76 -18.19" class="primitive"/>
  </g>
  <g transform="translate(100.53,33.26)" stroke="#000000">
    <path fill="none" d="M26.62,27.27 L -26.62 -27.27" class="primitive"/>
  </g>
  <g transform="translate(22.62,89.06)" stroke="#000000">
    <path fill="none" d="M31.26,-30.53 L -31.26 30.53" class="primitive"/>
  </g>
  <g transform="translate(38.19,104.95)" stroke="#000000">
    <path fill="none" d="M14.96,15.33 L -14.96 -15.33" class="primitive"/>
  </g>
  <g transform="translate(44.95,67.26)" stroke="#FFFFFF">
    <path fill="none" d="M15.63,-15.26 L -15.63 15.26" class="primitive"/>
  </g>
  <g transform="translate(41.3,101.5)" stroke="#000000">
    <path fill="none" d="M18.47,18.91 L -18.47 -18.91" class="primitive"/>
  </g>
  <g transform="translate(21,90.65)" stroke="#000000">
    <path fill="none" d="M14.23,-13.9 L -14.23 13.9" class="primitive"/>
  </g>
  <g transform="translate(37.71,85.21)" stroke="#000000">
    <path fill="none" d="M-2.55,-2.62 L 2.55 2.62" class="primitive"/>
  </g>
  <g transform="translate(52.6,59.79)" stroke="#000000">
    <path fill="none" d="M22.54,-22.02 L -22.54 22.02" class="primitive"/>
  </g>
  <g transform="translate(48.25,78.63)" stroke="#000000">
    <path fill="none" d="M26.09,26.72 L -26.09 -26.72" class="primitive"/>
  </g>
  <g transform="translate(64.75,47.92)" stroke="#FFFFFF">
    <path fill="none" d="M7.51,-7.33 L -7.51 7.33" class="primitive"/>
  </g>
  <g transform="translate(55.15,65.29)" stroke="#000000">
    <path fill="none" d="M16.61,17.01 L -16.61 -17.01" class="primitive"/>
  </g>
  <g transform="translate(58.97,53.56)" stroke="#000000">
    <path fill="none" d="M7.56,-7.38 L -7.56 7.38" class="primitive"/>
  </g>
  <g transform="translate(67.33,56.29)" stroke="#000000">
    <path fill="none" d="M-0.9,-0.93 L 0.9 0.93" class="primitive"/>
  </g>
  <g transform="translate(79.18,33.83)" stroke="#000000">
    <path fill="none" d="M13.6,-13.28 L -13.6 13.28" class="primitive"/>
  </g>
  <g transform="translate(78.77,47.59)" stroke="#000000">
    <path fill="none" d="M13.52,13.85 L -13.52 -13.85" class="primitive"/>
  </g>
  <g transform="translate(78.65,34.34)" stroke="#FFFFFF">
    <path fill="none" d="M17.32,-16.91 L -17.32 16.91" class="primitive"/>
  </g>
  <g transform="translate(81.27,32.78)" stroke="#FFFFFF">
    <path fill="none" d="M14.34,14.69 L -14.34 -14.69" class="primitive"/>
  </g>
  <g transform="translate(93.17,20.17)" stroke="#000000">
    <path fill="none" d="M19.66,-19.2 L -19.66 19.2" class="primitive"/>
  </g>
  <g transform="translate(85.51,24.51)" stroke="#000000">
    <path fill="none" d="M26.71,27.36 L -26.71 -27.36" class="primitive"/>
  </g>
  <g transform="translate(82.23,14.51)" stroke="#000000">
    <path fill="none" d="M24.65,25.25 L -24.65 -25.25" class="primitive"/>
  </g>
  <g transform="translate(30.81,97.88)" stroke="#000000">
    <path fill="none" d="M8.26,-8.07 L -8.26 8.07" class="primitive"/>
  </g>
  <g transform="translate(31.87,98.48)" stroke="#000000">
    <path fill="none" d="M7.01,7.18 L -7.01 -7.18" class="primitive"/>
  </g>
  <g transform="translate(43.22,85.76)" stroke="#FFFFFF">
    <path fill="none" d="M2.97,-2.9 L -2.97 2.9" class="primitive"/>
  </g>
  <g transform="translate(29.62,89.54)" stroke="#000000">
    <path fill="none" d="M16.29,16.68 L -16.29 -16.68" class="primitive"/>
  </g>
  <g transform="translate(31.3,97.4)" stroke="#000000">
    <path fill="none" d="M9.8,-9.57 L -9.8 9.57" class="primitive"/>
  </g>
  <g transform="translate(34.08,81.48)" stroke="#000000">
    <path fill="none" d="M7.01,7.18 L -7.01 -7.18" class="primitive"/>
  </g>
  <g transform="translate(57.62,71.69)" stroke="#000000">
    <path fill="none" d="M19.59,-19.13 L -19.59 19.13" class="primitive"/>
  </g>
  <g transform="translate(45.85,76.17)" stroke="#000000">
    <path fill="none" d="M30.71,31.45 L -30.71 -31.45" class="primitive"/>
  </g>
  <g transform="translate(74.63,55.08)" stroke="#FFFFFF">
    <path fill="none" d="M6.45,-6.3 L -6.45 6.3" class="primitive"/>
  </g>
  <g transform="translate(65.94,76.34)" stroke="#000000">
    <path fill="none" d="M14.64,14.99 L -14.64 -14.99" class="primitive"/>
  </g>
  <g transform="translate(68.64,60.93)" stroke="#000000">
    <path fill="none" d="M3.76,-3.67 L -3.76 3.67" class="primitive"/>
  </g>
  <g transform="translate(73.79,62.9)" stroke="#000000">
    <path fill="none" d="M-1.44,-1.47 L 1.44 1.47" class="primitive"/>
  </g>
  <g transform="translate(81.25,48.62)" stroke="#FFFFFF">
    <path fill="none" d="M14.86,-14.52 L -14.86 14.52" class="primitive"/>
  </g>
  <g transform="translate(80.49,49.35)" stroke="#000000">
    <path fill="none" d="M15.26,15.63 L -15.26 -15.63" class="primitive"/>
  </g>
  <g transform="translate(84.94,45.01)" stroke="#000000">
    <path fill="none" d="M27.03,-26.39 L -27.03 26.39" class="primitive"/>
  </g>
  <g transform="translate(98.24,50.16)" stroke="#000000">
    <path fill="none" d="M13.2,13.51 L -13.2 -13.51" class="primitive"/>
  </g>
  <g transform="translate(94.82,35.37)" stroke="#000000">
    <path fill="none" d="M38.23,-37.33 L -38.23 37.33" class="primitive"/>
  </g>
  <g transform="translate(103.51,42.95)" stroke="#000000">
    <path fill="none" d="M28.65,29.34 L -28.65 -29.34" class="primitive"/>
  </g>
  <g transform="translate(106.01,38.86)" stroke="#000000">
    <path fill="none" d="M34.01,34.83 L -34.01 -34.83" class="primitive"/>
  </g>
  <g transform="translate(34.99,113.56)" stroke="#000000">
    <path fill="none" d="M22.4,-21.88 L -22.4 21.88" class="primitive"/>
  </g>
  <g transform="translate(42.62,109.49)" stroke="#FFFFFF">
    <path fill="none" d="M14.38,14.73 L -14.38 -14.73" class="primitive"/>
  </g>
  <g transform="translate(51.2,97.73)" stroke="#FFFFFF">
    <path fill="none" d="M24.7,-24.13 L -24.7 24.13" class="primitive"/>
  </g>
  <g transform="translate(50.68,111.11)" stroke="#FFFFFF">
    <path fill="none" d="M24.48,25.07 L -24.48 -25.07" class="primitive"/>
  </g>
  <g transform="translate(44.34,104.43)" stroke="#000000">
    <path fill="none" d="M30.27,-29.56 L -30.27 29.56" class="primitive"/>
  </g>
  <g transform="translate(62.96,111.07)" stroke="#FFFFFF">
    <path fill="none" d="M11.09,11.35 L -11.09 -11.35" class="primitive"/>
  </g>
  <g transform="translate(77.63,71.92)" stroke="#000000">
    <path fill="none" d="M26.77,-26.14 L -26.77 26.14" class="primitive"/>
  </g>
  <g transform="translate(72.88,103.86)" stroke="#FFFFFF">
    <path fill="none" d="M30.46,31.19 L -30.46 -31.19" class="primitive"/>
  </g>
  <g transform="translate(81.56,68.09)" stroke="#FFFFFF">
    <path fill="none" d="M6.45,-6.3 L -6.45 6.3" class="primitive"/>
  </g>
  <g transform="translate(79.79,90.52)" stroke="#FFFFFF">
    <path fill="none" d="M7.79,7.98 L -7.79 -7.98" class="primitive"/>
  </g>
  <g transform="translate(74.93,74.56)" stroke="#000000">
    <path fill="none" d="M10.3,-10.06 L -10.3 10.06" class="primitive"/>
  </g>
  <g transform="translate(86.4,75.82)" stroke="#FFFFFF">
    <path fill="none" d="M-1.28,-1.31 L 1.28 1.31" class="primitive"/>
  </g>
  <g transform="translate(100.41,49.67)" stroke="#FFFFFF">
    <path fill="none" d="M15.71,-15.34 L -15.71 15.34" class="primitive"/>
  </g>
  <g transform="translate(104.02,73.45)" stroke="#FFFFFF">
    <path fill="none" d="M11.5,11.78 L -11.5 -11.78" class="primitive"/>
  </g>
  <g transform="translate(93.77,56.16)" stroke="#000000">
    <path fill="none" d="M19.64,-19.18 L -19.64 19.18" class="primitive"/>
  </g>
  <g transform="translate(105.9,58.01)" stroke="#FFFFFF">
    <path fill="none" d="M7.17,7.34 L -7.17 -7.34" class="primitive"/>
  </g>
  <g transform="translate(103.86,46.31)" stroke="#000000">
    <path fill="none" d="M32.74,-31.98 L -32.74 31.98" class="primitive"/>
  </g>
  <g transform="translate(124.78,64.72)" stroke="#FFFFFF">
    <path fill="none" d="M11.09,11.35 L -11.09 -11.35" class="primitive"/>
  </g>
  <g transform="translate(114.9,47.98)" stroke="#FFFFFF">
    <path fill="none" d="M30.46,31.19 L -30.46 -31.19" class="primitive"/>
  </g>
  <g transform="translate(50.23,119.46)" stroke="#000000">
    <path fill="none" d="M24.72,-24.14 L -24.72 24.14" class="primitive"/>
  </g>
  <g transform="translate(64.5,131.9)" stroke="#000000">
    <path fill="none" d="M9.9,10.14 L -9.9 -10.14" class="primitive"/>
  </g>
  <g transform="translate(67.71,102.4)" stroke="#FFFFFF">
    <path fill="none" d="M16.05,-15.68 L -16.05 15.68" class="primitive"/>
  </g>
  <g transform="translate(60.81,121.49)" stroke="#000000">
    <path fill="none" d="M22.26,22.8 L -22.26 -22.8" class="primitive"/>
  </g>
  <g transform="translate(56,113.83)" stroke="#000000">
    <path fill="none" d="M14.23,-13.9 L -14.23 13.9" class="primitive"/>
  </g>
  <g transform="translate(67.12,115.33)" stroke="#000000">
    <path fill="none" d="M2.89,2.96 L -2.89 -2.96" class="primitive"/>
  </g>
  <g transform="translate(84.65,85.86)" stroke="#000000">
    <path fill="none" d="M12.84,-12.54 L -12.84 12.54" class="primitive"/>
  </g>
  <g transform="translate(85.07,116.35)" stroke="#000000">
    <path fill="none" d="M11.75,12.04 L -11.75 -12.04" class="primitive"/>
  </g>
  <g transform="translate(87.73,82.85)" stroke="#FFFFFF">
    <path fill="none" d="M0.12,-0.12 L -0.12 0.12" class="primitive"/>
  </g>
  <g transform="translate(83.33,94.14)" stroke="#000000">
    <path fill="none" d="M4.33,4.44 L -4.33 -4.44" class="primitive"/>
  </g>
  <g transform="translate(92.92,77.78)" stroke="#000000">
    <path fill="none" d="M0.6,-0.58 L -0.6 0.58" class="primitive"/>
  </g>
  <g transform="translate(92.61,82.18)" stroke="#000000">
    <path fill="none" d="M0.83,0.85 L -0.83 -0.85" class="primitive"/>
  </g>
  <g transform="translate(103.84,67.11)" stroke="#000000">
    <path fill="none" d="M5.37,-5.24 L -5.37 5.24" class="primitive"/>
  </g>
  <g transform="translate(96.02,65.25)" stroke="#000000">
    <path fill="none" d="M12.99,13.3 L -12.99 -13.3" class="primitive"/>
  </g>
  <g transform="translate(117.03,54.23)" stroke="#000000">
    <path fill="none" d="M3.39,-3.31 L -3.39 3.31" class="primitive"/>
  </g>
  <g transform="translate(110.26,62.48)" stroke="#000000">
    <path fill="none" d="M9.9,10.14 L -9.9 -10.14" class="primitive"/>
  </g>
  <g transform="translate(100.74,70.14)" stroke="#000000">
    <path fill="none" d="M17.12,-16.72 L -17.12 16.72" class="primitive"/>
  </g>
  <g transform="translate(110.39,49.98)" stroke="#000000">
    <path fill="none" d="M7.42,7.6 L -7.42 -7.6" class="primitive"/>
  </g>
  <g transform="translate(131.22,64.69)" stroke="#000000">
    <path fill="none" d="M22.47,23.01 L -22.47 -23.01" class="primitive"/>
  </g>
  <g transform="translate(52.94,136.59)" stroke="#000000">
    <path fill="none" d="M15.01,-14.66 L -15.01 14.66" class="primitive"/>
  </g>
  <g transform="translate(59.84,127.12)" stroke="#000000">
    <path fill="none" d="M7.96,8.15 L -7.96 -8.15" class="primitive"/>
  </g>
  <g transform="translate(77.59,112.51)" stroke="#FFFFFF">
    <path fill="none" d="M13.52,-13.2 L -13.52 13.2" class="primitive"/>
  </g>
  <g transform="translate(63.77,124.52)" stroke="#000000">
    <path fill="none" d="M26.71,27.36 L -26.71 -27.36" class="primitive"/>
  </g>
  <g transform="translate(75.37,114.68)" stroke="#000000">
    <path fill="none" d="M2.2,-2.15 L -2.2 2.15" class="primitive"/>
  </g>
  <g transform="translate(72.14,120.47)" stroke="#000000">
    <path fill="none" d="M5.28,5.41 L -5.28 -5.41" class="primitive"/>
  </g>
  <g transform="translate(82.28,107.93)" stroke="#000000">
    <path fill="none" d="M3.55,-3.47 L -3.55 3.47" class="primitive"/>
  </g>
  <g transform="translate(81.64,112.84)" stroke="#000000">
    <path fill="none" d="M4.04,4.14 L -4.04 -4.14" class="primitive"/>
  </g>
  <g transform="translate(96.13,94.41)" stroke="#FFFFFF">
    <path fill="none" d="M4.55,-4.45 L -4.55 4.45" class="primitive"/>
  </g>
  <g transform="translate(89.38,100.34)" stroke="#000000">
    <path fill="none" d="M11.05,11.32 L -11.05 -11.32" class="primitive"/>
  </g>
  <g transform="translate(95.83,94.7)" stroke="#000000">
    <path fill="none" d="M13.47,-13.15 L -13.47 13.15" class="primitive"/>
  </g>
  <g transform="translate(88.57,78.04)" stroke="#FFFFFF">
    <path fill="none" d="M20.53,21.02 L -20.53 -21.02" class="primitive"/>
  </g>
  <g transform="translate(119.42,71.67)" stroke="#000000">
    <path fill="none" d="M19.51,-19.05 L -19.51 19.05" class="primitive"/>
  </g>
  <g transform="translate(124.12,94.03)" stroke="#FFFFFF">
    <path fill="none" d="M14.14,14.48 L -14.14 -14.48" class="primitive"/>
  </g>
  <g transform="translate(120.58,70.53)" stroke="#000000">
    <path fill="none" d="M18.16,-17.74 L -18.16 17.74" class="primitive"/>
  </g>
  <g transform="translate(124.14,76.69)" stroke="#FFFFFF">
    <path fill="none" d="M14.14,14.48 L -14.14 -14.48" class="primitive"/>
  </g>
  <g transform="translate(128.56,62.74)" stroke="#000000">
    <path fill="none" d="M20.29,-19.82 L -20.29 19.82" class="primitive"/>
  </g>
  <g transform="translate(131.07,71.17)" stroke="#000000">
    <path fill="none" d="M17.23,17.65 L -17.23 -17.65" class="primitive"/>
  </g>
  <g transform="translate(128.2,61.6)" stroke="#000000">
    <path fill="none" d="M20.94,21.45 L -20.94 -21.45" class="primitive"/>
  </g>
  <g transform="translate(61.98,144.57)" stroke="#000000">
    <path fill="none" d="M25.78,-25.17 L -25.78 25.17" class="primitive"/>
  </g>
  <g transform="translate(64.62,132.02)" stroke="#000000">
    <path fill="none" d="M22.71,23.26 L -22.71 -23.26" class="primitive"/>
  </g>
  <g transform="translate(88.1,119.06)" stroke="#FFFFFF">
    <path fill="none" d="M21.54,-21.03 L -21.54 21.03" class="primitive"/>
  </g>
  <g transform="translate(86.48,147.78)" stroke="#000000">
    <path fill="none" d="M22.29,22.83 L -22.29 -22.83" class="primitive"/>
  </g>
  <g transform="translate(84.62,122.46)" stroke="#000000">
    <path fill="none" d="M7.27,-7.1 L -7.27 7.1" class="primitive"/>
  </g>
  <g transform="translate(81.66,130.22)" stroke="#FFFFFF">
    <path fill="none" d="M9.93,10.17 L -9.93 -10.17" class="primitive"/>
  </g>
  <g transform="translate(88.16,119.01)" stroke="#000000">
    <path fill="none" d="M10.3,-10.06 L -10.3 10.06" class="primitive"/>
  </g>
  <g transform="translate(84.16,115.41)" stroke="#000000">
    <path fill="none" d="M14.05,14.39 L -14.05 -14.39" class="primitive"/>
  </g>
  <g transform="translate(92.71,114.56)" stroke="#FFFFFF">
    <path fill="none" d="M25.66,-25.06 L -25.66 25.06" class="primitive"/>
  </g>
  <g transform="translate(105.91,117.27)" stroke="#000000">
    <path fill="none" d="M11.99,12.28 L -11.99 -12.28" class="primitive"/>
  </g>
  <g transform="translate(130.2,77.95)" stroke="#000000">
    <path fill="none" d="M20.43,-19.96 L -20.43 19.96" class="primitive"/>
  </g>
  <g transform="translate(111.07,101.09)" stroke="#000000">
    <path fill="none" d="M38.57,39.51 L -38.57 -39.51" class="primitive"/>
  </g>
  <g transform="translate(118.96,88.93)" stroke="#000000">
    <path fill="none" d="M9.38,-9.16 L -9.38 9.16" class="primitive"/>
  </g>
  <g transform="translate(113.03,82.68)" stroke="#000000">
    <path fill="none" d="M15.08,15.45 L -15.08 -15.45" class="primitive"/>
  </g>
  <g transform="translate(129.62,78.52)" stroke="#FFFFFF">
    <path fill="none" d="M16.26,-15.88 L -16.26 15.88" class="primitive"/>
  </g>
  <g transform="translate(125.84,78.42)" stroke="#000000">
    <path fill="none" d="M19.62,20.09 L -19.62 -20.09" class="primitive"/>
  </g>
  <g transform="translate(130.63,77.53)" stroke="#000000">
    <path fill="none" d="M24.09,-23.53 L -24.09 23.53" class="primitive"/>
  </g>
  <g transform="translate(131.73,71.84)" stroke="#FFFFFF">
    <path fill="none" d="M22.5,23.05 L -22.5 -23.05" class="primitive"/>
  </g>
  <g transform="translate(147.62,81.48)" stroke="#FFFFFF">
    <path fill="none" d="M19.82,20.3 L -19.82 -20.3" class="primitive"/>
  </g>
  <g transform="translate(87.08,132.28)" stroke="#000000">
    <path fill="none" d="M23.25,-22.7 L -23.25 22.7" class="primitive"/>
  </g>
  <g transform="translate(76.9,144.6)" stroke="#000000">
    <path fill="none" d="M32.6,33.39 L -32.6 -33.39" class="primitive"/>
  </g>
  <g transform="translate(82.81,136.44)" stroke="#000000">
    <path fill="none" d="M11.41,-11.14 L -11.41 11.14" class="primitive"/>
  </g>
  <g transform="translate(80.63,141.78)" stroke="#000000">
    <path fill="none" d="M13.23,13.55 L -13.23 -13.55" class="primitive"/>
  </g>
  <g transform="translate(84.4,134.9)" stroke="#FFFFFF">
    <path fill="none" d="M14.86,-14.52 L -14.86 14.52" class="primitive"/>
  </g>
  <g transform="translate(72.92,121.27)" stroke="#000000">
    <path fill="none" d="M26.01,26.64 L -26.01 -26.64" class="primitive"/>
  </g>
  <g transform="translate(106.08,113.72)" stroke="#000000">
    <path fill="none" d="M12.41,-12.12 L -12.41 12.12" class="primitive"/>
  </g>
  <g transform="translate(92.94,124.4)" stroke="#000000">
    <path fill="none" d="M24.98,25.58 L -24.98 -25.58" class="primitive"/>
  </g>
  <g transform="translate(93.12,126.37)" stroke="#FFFFFF">
    <path fill="none" d="M21.65,-21.14 L -21.65 21.14" class="primitive"/>
  </g>
  <g transform="translate(95.93,107.05)" stroke="#000000">
    <path fill="none" d="M18.59,19.04 L -18.59 -19.04" class="primitive"/>
  </g>
  <g transform="translate(127.86,92.45)" stroke="#000000">
    <path fill="none" d="M30.56,-29.85 L -30.56 29.85" class="primitive"/>
  </g>
  <g transform="translate(124.8,115.15)" stroke="#000000">
    <path fill="none" d="M32.6,33.39 L -32.6 -33.39" class="primitive"/>
  </g>
  <g transform="translate(129.28,91.06)" stroke="#000000">
    <path fill="none" d="M23.73,-23.17 L -23.73 23.17" class="primitive"/>
  </g>
  <g transform="translate(127.99,98)" stroke="#000000">
    <path fill="none" d="M24.36,24.95 L -24.36 -24.95" class="primitive"/>
  </g>
  <g transform="translate(135.3,85.19)" stroke="#000000">
    <path fill="none" d="M26.81,-26.19 L -26.81 26.19" class="primitive"/>
  </g>
  <g transform="translate(131.11,83.83)" stroke="#000000">
    <path fill="none" d="M30.34,31.07 L -30.34 -31.07" class="primitive"/>
  </g>
  <g transform="translate(149.61,71.21)" stroke="#000000">
    <path fill="none" d="M22.19,-21.67 L -22.19 21.67" class="primitive"/>
  </g>
  <g transform="translate(144.01,84.42)" stroke="#000000">
    <path fill="none" d="M27.04,27.69 L -27.04 -27.69" class="primitive"/>
  </g>
  <g transform="translate(135.99,69.58)" stroke="#000000">
    <path fill="none" d="M23.12,23.68 L -23.12 -23.68" class="primitive"/>
  </g>
  <g transform="translate(90.71,135.15)" stroke="#000000">
    <path fill="none" d="M23.67,-23.11 L -23.67 23.11" class="primitive"/>
  </g>
  <g transform="translate(71.67,153.75)" stroke="#000000">
    <path fill="none" d="M25.76,-25.16 L -25.76 25.16" class="primitive"/>
  </g>
  <g transform="translate(99.21,126.85)" stroke="#FFFFFF">
    <path fill="none" d="M31.96,-31.21 L -31.96 31.21" class="primitive"/>
  </g>
  <g transform="translate(101.9,124.22)" stroke="#000000">
    <path fill="none" d="M25.29,-24.7 L -25.29 24.7" class="primitive"/>
  </g>
  <g transform="translate(114.9,111.53)" stroke="#FFFFFF">
    <path fill="none" d="M23.34,-22.79 L -23.34 22.79" class="primitive"/>
  </g>
  <g transform="translate(123.89,102.75)" stroke="#000000">
    <path fill="none" d="M20.86,-20.37 L -20.86 20.37" class="primitive"/>
  </g>
  <g transform="translate(126.79,99.91)" stroke="#000000">
    <path fill="none" d="M26.89,-26.26 L -26.89 26.26" class="primitive"/>
  </g>
  <g transform="translate(145.26,81.88)" stroke="#000000">
    <path fill="none" d="M28.93,-28.25 L -28.93 28.25" class="primitive"/>
  </g>
  <g transform="translate(141.21,85.84)" stroke="#000000">
    <path fill="none" d="M29.15,-28.47 L -29.15 28.47" class="primitive"/>
  </g>
</g>
<g stroke-width="0.3" id="img-5cf1b9fe-2">
</g>
<g font-size="4" stroke="#000000" stroke-opacity="0.000" fill="#000000" id="img-5cf1b9fe-3">
</g>
<g stroke-width="0.3" stroke="#D3D3D3" id="img-5cf1b9fe-4">
  <g transform="translate(13.33,79.49)" fill="#930068">
    <circle cx="0" cy="0" r="30.58" class="primitive"/>
  </g>
  <g transform="translate(16.65,76.25)" fill="#930068">
    <circle cx="0" cy="0" r="40.21" class="primitive"/>
  </g>
  <g transform="translate(22.96,70.1)" fill="#930068">
    <circle cx="0" cy="0" r="35.12" class="primitive"/>
  </g>
  <g transform="translate(31.64,61.62)" fill="#005FD5">
    <circle cx="0" cy="0" r="15.29" class="primitive"/>
  </g>
  <g transform="translate(41.84,51.65)" fill="#005FD5">
    <circle cx="0" cy="0" r="34.55" class="primitive"/>
  </g>
  <g transform="translate(52.57,41.17)" fill="#FFFF62">
    <circle cx="0" cy="0" r="46.44" class="primitive"/>
  </g>
  <g transform="translate(62.78,31.21)" fill="#FFFF62">
    <circle cx="0" cy="0" r="29.45" class="primitive"/>
  </g>
  <g transform="translate(71.46,22.73)" fill="#FFFF62">
    <circle cx="0" cy="0" r="49.27" class="primitive"/>
  </g>
  <g transform="translate(77.76,16.57)" fill="#000000">
    <circle cx="0" cy="0" r="54.37" class="primitive"/>
  </g>
  <g transform="translate(81.08,13.33)" fill="#000000">
    <circle cx="0" cy="0" r="36.25" class="primitive"/>
  </g>
  <g transform="translate(16.54,82.78)" fill="#930068">
    <circle cx="0" cy="0" r="64" class="primitive"/>
  </g>
  <g transform="translate(19.86,79.54)" fill="#930068">
    <circle cx="0" cy="0" r="14.73" class="primitive"/>
  </g>
  <g transform="translate(26.17,73.38)" fill="#930068">
    <circle cx="0" cy="0" r="4.53" class="primitive"/>
  </g>
  <g transform="translate(34.85,64.91)" fill="#005FD5">
    <circle cx="0" cy="0" r="31.72" class="primitive"/>
  </g>
  <g transform="translate(45.05,54.94)" fill="#005FD5">
    <circle cx="0" cy="0" r="8.5" class="primitive"/>
  </g>
  <g transform="translate(55.78,44.46)" fill="#FFFF62">
    <circle cx="0" cy="0" r="37.38" class="primitive"/>
  </g>
  <g transform="translate(65.99,34.5)" fill="#FFFF62">
    <circle cx="0" cy="0" r="7.93" class="primitive"/>
  </g>
  <g transform="translate(74.67,26.02)" fill="#FFFF62">
    <circle cx="0" cy="0" r="17.56" class="primitive"/>
  </g>
  <g transform="translate(80.97,19.86)" fill="#000000">
    <circle cx="0" cy="0" r="22.65" class="primitive"/>
  </g>
  <g transform="translate(84.29,16.62)" fill="#000000">
    <circle cx="0" cy="0" r="58.9" class="primitive"/>
  </g>
  <g transform="translate(22.65,89.03)" fill="#930068">
    <circle cx="0" cy="0" r="41.91" class="primitive"/>
  </g>
  <g transform="translate(25.96,85.8)" fill="#930068">
    <circle cx="0" cy="0" r="46.44" class="primitive"/>
  </g>
  <g transform="translate(32.27,79.64)" fill="#005FD5">
    <circle cx="0" cy="0" r="3.96" class="primitive"/>
  </g>
  <g transform="translate(40.95,71.16)" fill="#005FD5">
    <circle cx="0" cy="0" r="45.88" class="primitive"/>
  </g>
  <g transform="translate(51.16,61.19)" fill="#005FD5">
    <circle cx="0" cy="0" r="28.32" class="primitive"/>
  </g>
  <g transform="translate(61.89,50.72)" fill="#FFFF62">
    <circle cx="0" cy="0" r="6.23" class="primitive"/>
  </g>
  <g transform="translate(72.09,40.75)" fill="#FFFF62">
    <circle cx="0" cy="0" r="27.75" class="primitive"/>
  </g>
  <g transform="translate(80.77,32.27)" fill="#FFFF62">
    <circle cx="0" cy="0" r="20.39" class="primitive"/>
  </g>
  <g transform="translate(87.08,26.11)" fill="#000000">
    <circle cx="0" cy="0" r="34.55" class="primitive"/>
  </g>
  <g transform="translate(90.4,22.87)" fill="#000000">
    <circle cx="0" cy="0" r="22.65" class="primitive"/>
  </g>
  <g transform="translate(31.05,97.64)" fill="#930068">
    <circle cx="0" cy="0" r="10.76" class="primitive"/>
  </g>
  <g transform="translate(34.37,94.4)" fill="#930068">
    <circle cx="0" cy="0" r="15.86" class="primitive"/>
  </g>
  <g transform="translate(40.68,88.24)" fill="#005FD5">
    <circle cx="0" cy="0" r="0.57" class="primitive"/>
  </g>
  <g transform="translate(49.36,79.77)" fill="#005FD5">
    <circle cx="0" cy="0" r="37.38" class="primitive"/>
  </g>
  <g transform="translate(59.56,69.8)" fill="#005FD5">
    <circle cx="0" cy="0" r="28.88" class="primitive"/>
  </g>
  <g transform="translate(70.29,59.32)" fill="#FFFF62">
    <circle cx="0" cy="0" r="2.83" class="primitive"/>
  </g>
  <g transform="translate(80.5,49.36)" fill="#FFFF62">
    <circle cx="0" cy="0" r="20.96" class="primitive"/>
  </g>
  <g transform="translate(89.18,40.88)" fill="#000000">
    <circle cx="0" cy="0" r="30.58" class="primitive"/>
  </g>
  <g transform="translate(95.48,34.72)" fill="#000000">
    <circle cx="0" cy="0" r="50.41" class="primitive"/>
  </g>
  <g transform="translate(98.8,31.48)" fill="#000000">
    <circle cx="0" cy="0" r="56.64" class="primitive"/>
  </g>
  <g transform="translate(40.93,107.76)" fill="#930068">
    <circle cx="0" cy="0" r="22.09" class="primitive"/>
  </g>
  <g transform="translate(44.25,104.52)" fill="#930068">
    <circle cx="0" cy="0" r="42.48" class="primitive"/>
  </g>
  <g transform="translate(50.56,98.36)" fill="#005FD5">
    <circle cx="0" cy="0" r="32.28" class="primitive"/>
  </g>
  <g transform="translate(59.24,89.89)" fill="#005FD5">
    <circle cx="0" cy="0" r="60.6" class="primitive"/>
  </g>
  <g transform="translate(69.44,79.92)" fill="#005FD5">
    <circle cx="0" cy="0" r="24.92" class="primitive"/>
  </g>
  <g transform="translate(80.17,69.44)" fill="#FFFF62">
    <circle cx="0" cy="0" r="6.8" class="primitive"/>
  </g>
  <g transform="translate(90.38,59.48)" fill="#FFFF62">
    <circle cx="0" cy="0" r="34.55" class="primitive"/>
  </g>
  <g transform="translate(99.06,51)" fill="#000000">
    <circle cx="0" cy="0" r="19.26" class="primitive"/>
  </g>
  <g transform="translate(105.36,44.84)" fill="#000000">
    <circle cx="0" cy="0" r="41.91" class="primitive"/>
  </g>
  <g transform="translate(108.68,41.6)" fill="#000000">
    <circle cx="0" cy="0" r="50.41" class="primitive"/>
  </g>
  <g transform="translate(51.32,118.4)" fill="#008029">
    <circle cx="0" cy="0" r="31.72" class="primitive"/>
  </g>
  <g transform="translate(54.64,115.16)" fill="#008029">
    <circle cx="0" cy="0" r="39.08" class="primitive"/>
  </g>
  <g transform="translate(60.94,109)" fill="#D74400">
    <circle cx="0" cy="0" r="12.46" class="primitive"/>
  </g>
  <g transform="translate(69.62,100.52)" fill="#D74400">
    <circle cx="0" cy="0" r="37.38" class="primitive"/>
  </g>
  <g transform="translate(79.83,90.56)" fill="#D74400">
    <circle cx="0" cy="0" r="10.76" class="primitive"/>
  </g>
  <g transform="translate(90.56,80.08)" fill="#FF9FFF">
    <circle cx="0" cy="0" r="3.96" class="primitive"/>
  </g>
  <g transform="translate(100.76,70.11)" fill="#FF9FFF">
    <circle cx="0" cy="0" r="11.33" class="primitive"/>
  </g>
  <g transform="translate(109.44,61.64)" fill="#FF9FFF">
    <circle cx="0" cy="0" r="14.73" class="primitive"/>
  </g>
  <g transform="translate(115.75,55.48)" fill="#FF9FFF">
    <circle cx="0" cy="0" r="2.83" class="primitive"/>
  </g>
  <g transform="translate(119.07,52.24)" fill="#FF9FFF">
    <circle cx="0" cy="0" r="47.58" class="primitive"/>
  </g>
  <g transform="translate(61.2,128.52)" fill="#008029">
    <circle cx="0" cy="0" r="9.06" class="primitive"/>
  </g>
  <g transform="translate(64.52,125.28)" fill="#008029">
    <circle cx="0" cy="0" r="35.68" class="primitive"/>
  </g>
  <g transform="translate(70.82,119.12)" fill="#D74400">
    <circle cx="0" cy="0" r="9.06" class="primitive"/>
  </g>
  <g transform="translate(79.5,110.64)" fill="#D74400">
    <circle cx="0" cy="0" r="8.5" class="primitive"/>
  </g>
  <g transform="translate(89.71,100.68)" fill="#D74400">
    <circle cx="0" cy="0" r="14.73" class="primitive"/>
  </g>
  <g transform="translate(100.44,90.2)" fill="#FF9FFF">
    <circle cx="0" cy="0" r="11.89" class="primitive"/>
  </g>
  <g transform="translate(110.64,80.23)" fill="#FF9FFF">
    <circle cx="0" cy="0" r="37.95" class="primitive"/>
  </g>
  <g transform="translate(119.32,71.76)" fill="#FF9FFF">
    <circle cx="0" cy="0" r="26.05" class="primitive"/>
  </g>
  <g transform="translate(125.63,65.6)" fill="#FF9FFF">
    <circle cx="0" cy="0" r="31.15" class="primitive"/>
  </g>
  <g transform="translate(128.95,62.36)" fill="#FF9FFF">
    <circle cx="0" cy="0" r="27.75" class="primitive"/>
  </g>
  <g transform="translate(69.6,137.13)" fill="#008029">
    <circle cx="0" cy="0" r="24.35" class="primitive"/>
  </g>
  <g transform="translate(72.92,133.89)" fill="#008029">
    <circle cx="0" cy="0" r="49.27" class="primitive"/>
  </g>
  <g transform="translate(79.23,127.73)" fill="#D74400">
    <circle cx="0" cy="0" r="16.99" class="primitive"/>
  </g>
  <g transform="translate(87.91,119.25)" fill="#D74400">
    <circle cx="0" cy="0" r="14.16" class="primitive"/>
  </g>
  <g transform="translate(98.11,109.28)" fill="#D74400">
    <circle cx="0" cy="0" r="27.19" class="primitive"/>
  </g>
  <g transform="translate(108.84,98.81)" fill="#00D6FF">
    <circle cx="0" cy="0" r="56.07" class="primitive"/>
  </g>
  <g transform="translate(119.05,88.84)" fill="#00D6FF">
    <circle cx="0" cy="0" r="12.46" class="primitive"/>
  </g>
  <g transform="translate(127.73,80.36)" fill="#00D6FF">
    <circle cx="0" cy="0" r="24.35" class="primitive"/>
  </g>
  <g transform="translate(134.04,74.2)" fill="#FF9FFF">
    <circle cx="0" cy="0" r="27.75" class="primitive"/>
  </g>
  <g transform="translate(137.35,70.97)" fill="#FF9FFF">
    <circle cx="0" cy="0" r="41.35" class="primitive"/>
  </g>
  <g transform="translate(75.71,143.38)" fill="#008029">
    <circle cx="0" cy="0" r="46.44" class="primitive"/>
  </g>
  <g transform="translate(79.03,140.14)" fill="#008029">
    <circle cx="0" cy="0" r="20.39" class="primitive"/>
  </g>
  <g transform="translate(85.33,133.98)" fill="#008029">
    <circle cx="0" cy="0" r="18.69" class="primitive"/>
  </g>
  <g transform="translate(94.01,125.5)" fill="#D74400">
    <circle cx="0" cy="0" r="32.85" class="primitive"/>
  </g>
  <g transform="translate(104.22,115.54)" fill="#D74400">
    <circle cx="0" cy="0" r="14.16" class="primitive"/>
  </g>
  <g transform="translate(114.95,105.06)" fill="#00D6FF">
    <circle cx="0" cy="0" r="58.34" class="primitive"/>
  </g>
  <g transform="translate(125.15,95.09)" fill="#00D6FF">
    <circle cx="0" cy="0" r="37.38" class="primitive"/>
  </g>
  <g transform="translate(133.83,86.62)" fill="#00D6FF">
    <circle cx="0" cy="0" r="37.95" class="primitive"/>
  </g>
  <g transform="translate(140.14,80.46)" fill="#00D6FF">
    <circle cx="0" cy="0" r="42.48" class="primitive"/>
  </g>
  <g transform="translate(143.46,77.22)" fill="#00D6FF">
    <circle cx="0" cy="0" r="21.52" class="primitive"/>
  </g>
  <g transform="translate(78.92,146.67)" fill="#008029">
    <circle cx="0" cy="0" r="47.58" class="primitive"/>
  </g>
  <g transform="translate(82.24,143.43)" fill="#008029">
    <circle cx="0" cy="0" r="20.39" class="primitive"/>
  </g>
  <g transform="translate(88.54,137.27)" fill="#008029">
    <circle cx="0" cy="0" r="57.2" class="primitive"/>
  </g>
  <g transform="translate(97.22,128.79)" fill="#D74400">
    <circle cx="0" cy="0" r="40.21" class="primitive"/>
  </g>
  <g transform="translate(107.43,118.83)" fill="#D74400">
    <circle cx="0" cy="0" r="41.35" class="primitive"/>
  </g>
  <g transform="translate(118.16,108.35)" fill="#00D6FF">
    <circle cx="0" cy="0" r="35.68" class="primitive"/>
  </g>
  <g transform="translate(128.36,98.38)" fill="#00D6FF">
    <circle cx="0" cy="0" r="33.98" class="primitive"/>
  </g>
  <g transform="translate(137.04,89.9)" fill="#00D6FF">
    <circle cx="0" cy="0" r="49.84" class="primitive"/>
  </g>
  <g transform="translate(143.35,83.75)" fill="#00D6FF">
    <circle cx="0" cy="0" r="36.25" class="primitive"/>
  </g>
  <g transform="translate(146.67,80.51)" fill="#00D6FF">
    <circle cx="0" cy="0" r="46.44" class="primitive"/>
  </g>
</g>
<g font-size="4" stroke="#000000" stroke-opacity="0.000" fill="#000000" id="img-5cf1b9fe-5">
</g>
</svg>
